<svg width="18" height="18" viewBox="0 0 18 18" fill="none" xmlns="http://www.w3.org/2000/svg">
<g id="Frame">
<path id="Vector" d="M9 1.6207C11.4047 1.6207 11.6895 1.63125 12.6352 1.67343C13.514 1.71211 13.9887 1.85977 14.305 1.98282C14.7235 2.14453 15.0258 2.3414 15.3387 2.6543C15.655 2.9707 15.8485 3.26953 16.0102 3.68789C16.1332 4.0043 16.2808 4.48242 16.3195 5.35782C16.3617 6.30703 16.3723 6.5918 16.3723 8.99297C16.3723 11.3977 16.3617 11.6824 16.3195 12.6282C16.2808 13.507 16.1332 13.9817 16.0102 14.298C15.8485 14.7164 15.6515 15.0187 15.3387 15.3317C15.0223 15.648 14.7235 15.8414 14.305 16.0032C13.9887 16.1262 13.5105 16.2738 12.6352 16.3125C11.686 16.3547 11.4012 16.3652 9 16.3652C6.59532 16.3652 6.31055 16.3547 5.36485 16.3125C4.48594 16.2738 4.01133 16.1262 3.69492 16.0032C3.27657 15.8414 2.97422 15.6445 2.66133 15.3317C2.34492 15.0152 2.15157 14.7164 1.98985 14.298C1.8668 13.9817 1.71914 13.5035 1.68047 12.6282C1.63828 11.6789 1.62773 11.3942 1.62773 8.99297C1.62773 6.58828 1.63828 6.30352 1.68047 5.35782C1.71914 4.4789 1.8668 4.0043 1.98985 3.68789C2.15157 3.26953 2.34844 2.96719 2.66133 2.6543C2.97773 2.33789 3.27657 2.14453 3.69492 1.98282C4.01133 1.85977 4.48945 1.71211 5.36485 1.67343C6.31055 1.63125 6.59532 1.6207 9 1.6207ZM9 0C6.55664 0 6.25078 0.010548 5.29102 0.05274C4.33477 0.094923 3.67735 0.249606 3.10782 0.471096C2.51367 0.703125 2.01094 1.00898 1.51172 1.51172C1.00898 2.01094 0.703125 2.51367 0.471096 3.1043C0.249606 3.67735 0.094923 4.33125 0.052731 5.2875C0.010548 6.25078 0 6.55664 0 9C0 11.4433 0.010548 11.7492 0.05274 12.709C0.094923 13.6652 0.249606 14.3227 0.471096 14.8922C0.703125 15.4863 1.00898 15.989 1.51172 16.4883C2.01094 16.9875 2.51367 17.2969 3.1043 17.5254C3.67735 17.7469 4.33125 17.9015 5.2875 17.9438C6.24727 17.986 6.55312 17.9965 8.99648 17.9965C11.4398 17.9965 11.7457 17.986 12.7055 17.9438C13.6617 17.9015 14.3192 17.7469 14.8887 17.5254C15.4793 17.2969 15.982 16.9875 16.4812 16.4883C16.9805 15.989 17.2898 15.4863 17.5183 14.8957C17.7398 14.3227 17.8945 13.6687 17.9367 12.7125C17.9789 11.7527 17.9895 11.4469 17.9895 9.00351C17.9895 6.56015 17.9789 6.2543 17.9367 5.29453C17.8945 4.33828 17.7398 3.68086 17.5183 3.11133C17.2969 2.51367 16.991 2.01094 16.4883 1.51172C15.989 1.0125 15.4863 0.703125 14.8957 0.474606C14.3227 0.253125 13.6687 0.098433 12.7125 0.05625C11.7492 0.010548 11.4433 0 9 0Z" fill="white"/>
<path id="Vector_2" d="M9 4.37734C6.44766 4.37734 4.37695 6.44804 4.37695 9.00039C4.37695 11.5527 6.44766 13.6234 9 13.6234C11.5523 13.6234 13.623 11.5527 13.623 9.00039C13.623 6.44804 11.5523 4.37734 9 4.37734ZM9 11.9992C7.34415 11.9992 6.00117 10.6562 6.00117 9.00039C6.00117 7.34453 7.34415 6.00156 9 6.00156C10.6558 6.00156 11.9988 7.34453 11.9988 9.00039C11.9988 10.6562 10.6558 11.9992 9 11.9992ZM14.8852 4.19453C14.8852 4.79219 14.4 5.27383 13.8058 5.27383C13.2082 5.27383 12.7265 4.78867 12.7265 4.19453C12.7265 3.59687 13.2117 3.11523 13.8058 3.11523C14.4 3.11523 14.8852 3.60039 14.8852 4.19453Z" fill="white"/>
</g>
</svg>
