<svg width="30" height="30" viewBox="0 0 30 30" fill="none" xmlns="http://www.w3.org/2000/svg">
<g id="clarity:language-line" clip-path="url(#clip0_27_1662)">
<path id="Vector" d="M25 2.5H13.6667C12.5621 2.5 11.6667 3.39543 11.6667 4.5V5.83333C11.6667 6.29357 12.0398 6.66667 12.5 6.66667C12.9602 6.66667 13.3333 6.29357 13.3333 5.83333V5.16667C13.3333 4.61438 13.781 4.16667 14.3333 4.16667H25C25.5 4.16667 25.8333 4.5 25.8333 5V14.1667C25.8333 14.6667 25.5 15 25 15H14.1667V19.8333C14.1667 20.3856 13.7189 20.8333 13.1667 20.8333H9.74999L6.66666 23.25V20.8333H4.16666C3.66666 20.8333 3.33332 20.5 3.33332 20V10.8333C3.33332 10.3333 3.66666 10 4.16666 10H14.1667C14.6269 10 15 9.6269 15 9.16667C15 8.70643 14.6269 8.33333 14.1667 8.33333H4.16666C2.74999 8.33333 1.66666 9.41667 1.66666 10.8333V20C1.66666 21.4167 2.74999 22.5 4.16666 22.5H4.99999V24.6539C4.99999 25.4951 5.97537 25.9604 6.62919 25.4311L10.25 22.5H13.8333C14.9379 22.5 15.8333 21.6046 15.8333 20.5V17.6667C15.8333 17.1144 16.281 16.6667 16.8333 16.6667H25C26.4167 16.6667 27.5 15.5833 27.5 14.1667V5C27.5 3.58333 26.4167 2.5 25 2.5Z" fill="#383838"/>
<path id="Vector_2" d="M5.16666 19.0832H7.16666L7.66666 17.7498H10.25L10.75 19.0832H12.75L9.91666 11.6665H7.91666L5.16666 19.0832ZM8.91666 13.7498L9.74999 16.3332H8.08332L8.91666 13.7498Z" fill="#383838"/>
<path id="Vector_3" d="M16.6667 14.1667C17.5833 14.1667 18.8333 13.9167 20 13.3333C21.1667 13.9167 22.5 14.1667 23.3333 14.1667V12.5C23.3333 12.5 22.5 12.5 21.5833 12.1667C22.5833 11.1667 23.3333 9.66667 23.3333 7.5V6.66667H20.8333V5H19.1667V6.66667H16.6667V8.33333H21.5833C21.4167 9.83333 20.75 10.75 20 11.3333C19.5 10.9167 19 10.3333 18.6667 9.58333H16.9167C17.25 10.6667 17.75 11.5 18.4167 12.1667C17.5833 12.5 16.8333 12.5 16.6667 12.5V14.1667Z" fill="#383838"/>
</g>
<defs>
<clipPath id="clip0_27_1662">
<rect width="30" height="30" fill="white"/>
</clipPath>
</defs>
</svg>
